# xmcd
#
# Track frame offsets: 
#        150
#        37730
#        90243
#        133655
#        176637
#        225642
#        246834
#        286714
#
# Disc length: 4644 seconds
#
# Revision: 0
# Processed by: cddbd v1.5.2PL0 Copyright (c) Steve Scherf et al.
# Submitted via: ExactAudioCopy v1.3
#
DISCID=5a122208
DTITLE=Raphael Wressnig and Enrico Crivellaro Organ Combo  - Live At The
DTITLE=Off Festival 
DYEAR=2009
DGENRE=Electric Blues
TTITLE0=Boom Bello
TTITLE1=West 43rd St. Blues
TTITLE2=Banana Boogaloo 
TTITLE3=Wally's March
TTITLE4=Cherokee
TTITLE5=Mosquito Bite
TTITLE6=Speedin'
TTITLE7=Vinnie's Blues
EXTD=
EXTT0=
EXTT1=
EXTT2=
EXTT3=
EXTT4=
EXTT5=
EXTT6=
EXTT7=
PLAYORDER=
